# Blender 4.1.1
# www.blender.org
mtllib pointLightSphere.mtl
o Sphere
v 0.270598 0.923880 -0.270598
v 0.500000 0.707107 -0.500000
v 0.653281 0.382683 -0.653281
v 0.707107 0.000000 -0.707107
v 0.653281 -0.382683 -0.653281
v 0.500000 -0.707107 -0.500000
v 0.270598 -0.923880 -0.270598
v 0.382683 0.923880 0.000000
v 0.707107 0.707107 0.000000
v 0.923879 0.382683 0.000000
v 1.000000 0.000000 0.000000
v 0.923879 -0.382683 0.000000
v 0.707107 -0.707107 0.000000
v 0.382683 -0.923880 0.000000
v 0.270598 0.923880 0.270598
v 0.500000 0.707107 0.500000
v 0.653281 0.382683 0.653281
v 0.707107 0.000000 0.707107
v 0.653281 -0.382683 0.653281
v 0.500000 -0.707107 0.500000
v 0.270598 -0.923880 0.270598
v 0.000000 0.923880 0.382683
v 0.000000 0.707107 0.707107
v 0.000000 0.382683 0.923879
v 0.000000 0.000000 1.000000
v 0.000000 -0.382683 0.923879
v 0.000000 -0.707107 0.707107
v 0.000000 -0.923880 0.382683
v -0.270598 0.923880 0.270598
v -0.500000 0.707107 0.500000
v -0.653281 0.382683 0.653281
v -0.707107 0.000000 0.707107
v -0.653281 -0.382683 0.653281
v -0.500000 -0.707107 0.500000
v -0.270598 -0.923880 0.270598
v -0.382683 0.923880 0.000000
v -0.707107 0.707107 0.000000
v -0.923879 0.382683 0.000000
v -1.000000 0.000000 0.000000
v -0.923879 -0.382683 0.000000
v -0.707107 -0.707107 0.000000
v -0.382683 -0.923880 0.000000
v -0.270598 0.923880 -0.270598
v -0.500000 0.707107 -0.500000
v -0.653281 0.382683 -0.653281
v -0.707107 0.000000 -0.707107
v -0.653281 -0.382683 -0.653281
v -0.500000 -0.707107 -0.500000
v -0.270598 -0.923880 -0.270598
v 0.000000 -1.000000 0.000000
v 0.000000 1.000000 0.000000
v 0.000000 0.923880 -0.382683
v 0.000000 0.707107 -0.707107
v 0.000000 0.382683 -0.923879
v 0.000000 0.000000 -1.000000
v 0.000000 -0.382683 -0.923879
v 0.000000 -0.707107 -0.707107
v 0.000000 -0.923880 -0.382683
vn 0.2988 0.9063 -0.2988
vn 0.5159 0.6839 -0.5159
vn 0.6578 0.3668 -0.6578
vn 0.7071 -0.0000 -0.7071
vn 0.6578 -0.3668 -0.6578
vn 0.5159 -0.6839 -0.5159
vn 0.2988 -0.9063 -0.2988
vn 0.4226 0.9063 -0.0000
vn 0.7296 0.6839 -0.0000
vn 0.9303 0.3668 -0.0000
vn 1.0000 -0.0000 -0.0000
vn 0.9303 -0.3668 -0.0000
vn 0.7296 -0.6839 -0.0000
vn 0.4226 -0.9063 -0.0000
vn 0.2988 0.9063 0.2988
vn 0.5159 0.6839 0.5159
vn 0.6578 0.3668 0.6578
vn 0.7071 -0.0000 0.7071
vn 0.6578 -0.3668 0.6578
vn 0.5159 -0.6839 0.5159
vn 0.2988 -0.9063 0.2988
vn -0.0000 0.9063 0.4226
vn -0.0000 0.6839 0.7296
vn -0.0000 0.3668 0.9303
vn -0.0000 -0.0000 1.0000
vn -0.0000 -0.3668 0.9303
vn -0.0000 -0.6839 0.7296
vn -0.0000 -0.9063 0.4226
vn -0.2988 0.9063 0.2988
vn -0.5159 0.6839 0.5159
vn -0.6578 0.3668 0.6578
vn -0.7071 -0.0000 0.7071
vn -0.6578 -0.3668 0.6578
vn -0.5159 -0.6839 0.5159
vn -0.2988 -0.9063 0.2988
vn -0.4226 0.9063 -0.0000
vn -0.7296 0.6839 -0.0000
vn -0.9303 0.3668 -0.0000
vn -1.0000 -0.0000 -0.0000
vn -0.9303 -0.3668 -0.0000
vn -0.7296 -0.6839 -0.0000
vn -0.4226 -0.9063 -0.0000
vn -0.2988 0.9063 -0.2988
vn -0.5159 0.6839 -0.5159
vn -0.6578 0.3668 -0.6578
vn -0.7071 -0.0000 -0.7071
vn -0.6578 -0.3668 -0.6578
vn -0.5159 -0.6839 -0.5159
vn -0.2988 -0.9063 -0.2988
vn -0.0000 -1.0000 -0.0000
vn -0.0000 1.0000 -0.0000
vn -0.0000 0.9063 -0.4226
vn -0.0000 0.6839 -0.7296
vn -0.0000 0.3668 -0.9303
vn -0.0000 -0.0000 -1.0000
vn -0.0000 -0.3668 -0.9303
vn -0.0000 -0.6839 -0.7296
vn -0.0000 -0.9063 -0.4226
vt 0.750000 0.125000
vt 0.750000 0.250000
vt 0.625000 0.250000
vt 0.625000 0.125000
vt 0.750000 0.375000
vt 0.750000 0.500000
vt 0.625000 0.500000
vt 0.625000 0.375000
vt 0.750000 0.625000
vt 0.750000 0.750000
vt 0.625000 0.750000
vt 0.625000 0.625000
vt 0.750000 0.875000
vt 0.687500 1.000000
vt 0.625000 0.875000
vt 0.687500 0.000000
vt 0.500000 0.750000
vt 0.500000 0.625000
vt 0.562500 1.000000
vt 0.500000 0.875000
vt 0.562500 0.000000
vt 0.500000 0.125000
vt 0.500000 0.375000
vt 0.500000 0.250000
vt 0.500000 0.500000
vt 0.437500 0.000000
vt 0.375000 0.125000
vt 0.375000 0.375000
vt 0.375000 0.250000
vt 0.375000 0.625000
vt 0.375000 0.500000
vt 0.375000 0.875000
vt 0.375000 0.750000
vt 0.437500 1.000000
vt 0.250000 0.875000
vt 0.250000 0.750000
vt 0.250000 0.250000
vt 0.250000 0.125000
vt 0.250000 0.500000
vt 0.250000 0.375000
vt 0.250000 0.625000
vt 0.312500 1.000000
vt 0.312500 0.000000
vt 0.125000 0.250000
vt 0.125000 0.125000
vt 0.125000 0.500000
vt 0.125000 0.375000
vt 0.125000 0.750000
vt 0.125000 0.625000
vt 0.187500 1.000000
vt 0.125000 0.875000
vt 0.187500 0.000000
vt 0.062500 1.000000
vt 0.000000 0.875000
vt 0.062500 0.000000
vt 0.000000 0.125000
vt 0.000000 0.375000
vt 0.000000 0.250000
vt 0.000000 0.625000
vt 0.000000 0.500000
vt 0.000000 0.750000
vt 1.000000 0.250000
vt 1.000000 0.375000
vt 0.875000 0.375000
vt 0.875000 0.250000
vt 1.000000 0.500000
vt 1.000000 0.625000
vt 0.875000 0.625000
vt 0.875000 0.500000
vt 1.000000 0.750000
vt 1.000000 0.875000
vt 0.875000 0.875000
vt 0.875000 0.750000
vt 1.000000 0.125000
vt 0.875000 0.125000
vt 0.937500 1.000000
vt 0.937500 0.000000
vt 0.812500 1.000000
vt 0.812500 0.000000
s 1
usemtl Material.001
f 58/1/58 57/2/57 6/3/6 7/4/7
f 56/5/56 55/6/55 4/7/4 5/8/5
f 54/9/54 53/10/53 2/11/2 3/12/3
f 52/13/52 51/14/51 1/15/1
f 50/16/50 58/1/58 7/4/7
f 57/2/57 56/5/56 5/8/5 6/3/6
f 55/6/55 54/9/54 3/12/3 4/7/4
f 53/10/53 52/13/52 1/15/1 2/11/2
f 3/12/3 2/11/2 9/17/9 10/18/10
f 1/15/1 51/19/51 8/20/8
f 50/21/50 7/4/7 14/22/14
f 6/3/6 5/8/5 12/23/12 13/24/13
f 4/7/4 3/12/3 10/18/10 11/25/11
f 2/11/2 1/15/1 8/20/8 9/17/9
f 7/4/7 6/3/6 13/24/13 14/22/14
f 5/8/5 4/7/4 11/25/11 12/23/12
f 50/26/50 14/22/14 21/27/21
f 13/24/13 12/23/12 19/28/19 20/29/20
f 11/25/11 10/18/10 17/30/17 18/31/18
f 9/17/9 8/20/8 15/32/15 16/33/16
f 14/22/14 13/24/13 20/29/20 21/27/21
f 12/23/12 11/25/11 18/31/18 19/28/19
f 10/18/10 9/17/9 16/33/16 17/30/17
f 8/20/8 51/34/51 15/32/15
f 16/33/16 15/32/15 22/35/22 23/36/23
f 21/27/21 20/29/20 27/37/27 28/38/28
f 19/28/19 18/31/18 25/39/25 26/40/26
f 17/30/17 16/33/16 23/36/23 24/41/24
f 15/32/15 51/42/51 22/35/22
f 50/43/50 21/27/21 28/38/28
f 20/29/20 19/28/19 26/40/26 27/37/27
f 18/31/18 17/30/17 24/41/24 25/39/25
f 28/38/28 27/37/27 34/44/34 35/45/35
f 26/40/26 25/39/25 32/46/32 33/47/33
f 24/41/24 23/36/23 30/48/30 31/49/31
f 22/35/22 51/50/51 29/51/29
f 50/52/50 28/38/28 35/45/35
f 27/37/27 26/40/26 33/47/33 34/44/34
f 25/39/25 24/41/24 31/49/31 32/46/32
f 23/36/23 22/35/22 29/51/29 30/48/30
f 29/51/29 51/53/51 36/54/36
f 50/55/50 35/45/35 42/56/42
f 34/44/34 33/47/33 40/57/40 41/58/41
f 32/46/32 31/49/31 38/59/38 39/60/39
f 30/48/30 29/51/29 36/54/36 37/61/37
f 35/45/35 34/44/34 41/58/41 42/56/42
f 33/47/33 32/46/32 39/60/39 40/57/40
f 31/49/31 30/48/30 37/61/37 38/59/38
f 41/62/41 40/63/40 47/64/47 48/65/48
f 39/66/39 38/67/38 45/68/45 46/69/46
f 37/70/37 36/71/36 43/72/43 44/73/44
f 42/74/42 41/62/41 48/65/48 49/75/49
f 40/63/40 39/66/39 46/69/46 47/64/47
f 38/67/38 37/70/37 44/73/44 45/68/45
f 36/71/36 51/76/51 43/72/43
f 50/77/50 42/74/42 49/75/49
f 49/75/49 48/65/48 57/2/57 58/1/58
f 47/64/47 46/69/46 55/6/55 56/5/56
f 45/68/45 44/73/44 53/10/53 54/9/54
f 43/72/43 51/78/51 52/13/52
f 50/79/50 49/75/49 58/1/58
f 48/65/48 47/64/47 56/5/56 57/2/57
f 46/69/46 45/68/45 54/9/54 55/6/55
f 44/73/44 43/72/43 52/13/52 53/10/53
